<?xml version="1.0" encoding="utf-8"?>
<!-- Generator: Adobe Illustrator 19.0.0, SVG Export Plug-In . SVG Version: 6.00 Build 0)  -->
<svg version="1.1" xmlns="http://www.w3.org/2000/svg" xmlns:xlink="http://www.w3.org/1999/xlink" x="0px" y="0px"
	 viewBox="0 0 400 400" style="enable-background:new 0 0 400 400;" xml:space="preserve">
<g id="Layer_1" style="display:none;">
	<g id="XMLID_1_" style="display:inline;">
		<path id="XMLID_11_" style="fill:#5954A3;" d="M293.972,381.798h-43.984c-5.585,0-10.114-4.527-10.114-10.114v-10.752
			c-0.739,0.02-1.47,0.03-2.196,0.03H130.009c-0.695,0-1.393-0.01-2.094-0.026v10.749c0,5.587-4.528,10.114-10.114,10.114H73.817
			c-5.585,0-10.114-4.527-10.114-10.114v-39.26c-9.325-9.656-16.708-21.228-21.362-33.433h-7.017
			c-13.544,0-24.563-11.019-24.563-24.563v-27.885c0-13.544,11.019-24.563,24.563-24.563h4.991
			c5.783-19.255,18.316-37.087,34.898-49.542c-0.484-4.087-1.91-9.24-5.61-13.888c-6.807-8.555-5.375-14.873-2.976-18.667
			c5.067-8.01,16.547-7.38,25.452-5.356c4.385,0.673,26.465,4.731,38.081,19.558h107.518c46.093,0,79.985,33.433,89.639,66.457
			c0.107,0.365,0.193,0.736,0.258,1.111c1.111,6.232,5.174,17.651,10.25,20.298l9.938-7.464c7.783-5.847,18.471-5.014,25.247,1.84
			c4.11-3.124,9.997-2.66,13.557,1.208c3.783,4.112,3.516,10.509-0.594,14.292c-3.817,3.513-8.779,5.337-13.953,5.063
			c-4.882-0.23-9.394-2.249-12.802-5.709l-12.677,9.518c-1.649,1.238-3.638,1.942-5.699,2.018
			c-20.667,0.764-30.437-22.605-33.089-37.001c-7.737-25.63-34.17-51.405-70.077-51.405H130.009c-1.557,0-3.091,0.063-4.611,0.156
			c-3.997,0.278-7.867-1.946-9.678-5.584c-4.082-8.193-17.844-12.563-24.731-13.999c4.285,9.072,4.817,17.849,4.64,22.998
			c-0.11,3.276-1.803,6.295-4.538,8.099c-16.669,10.993-29.294,29.408-32.954,48.057c-0.93,4.744-5.09,8.168-9.924,8.168H35.324
			c-2.39,0-4.336,1.946-4.336,4.336v27.885c0,2.39,1.946,4.336,4.336,4.336h14.298c4.517,0,8.487,2.996,9.725,7.338
			C63,298.91,70.607,311.252,80.767,320.859c2.02,1.909,3.164,4.57,3.164,7.348v33.364h23.757v-11.651
			c0-2.943,1.282-5.742,3.513-7.661c2.23-1.923,5.189-2.775,8.097-2.341c3.677,0.55,7.18,0.816,10.711,0.816h107.669
			c3.305,0,6.84-0.29,10.808-0.886c2.917-0.438,5.868,0.418,8.101,2.337c2.23,1.923,3.514,4.721,3.514,7.664v11.72h23.757V328.52
			c0-2.821,1.179-5.515,3.251-7.431c10.667-9.854,18.555-22.759,21.64-35.415c1.322-5.429,6.79-8.741,12.222-7.431
			c5.426,1.323,8.752,6.795,7.429,12.224c-3.733,15.312-12.306,30.196-24.315,42.338v38.878
			C304.086,377.271,299.557,381.798,293.972,381.798z"/>
		<g id="XMLID_8_">
			<path id="XMLID_10_" style="fill:#FFFFFF;" d="M180.589,190.992c-12.474-7.89-20.496-22.053-19.818-37.857
				c1.01-23.506,20.883-41.742,44.389-40.733c23.506,1.01,41.742,20.883,40.733,44.389c-0.68,15.826-9.91,29.263-23.044,36.046"/>
			<path id="XMLID_9_" style="fill:#5954A3;" d="M222.858,202.952c-3.663,0-7.197-1.995-8.994-5.473
				c-2.563-4.963-0.617-11.064,4.344-13.628c10.346-5.343,17.082-15.878,17.581-27.494c0.769-17.897-13.166-33.082-31.062-33.852
				c-17.944-0.749-33.08,13.167-33.851,31.064c-0.497,11.597,5.296,22.662,15.12,28.875c4.721,2.986,6.127,9.233,3.142,13.954
				c-2.988,4.721-9.236,6.124-13.954,3.142c-15.93-10.076-25.324-28.024-24.516-46.839c1.246-29.039,25.889-51.66,54.926-50.404
				c29.043,1.248,51.652,25.889,50.403,54.928c-0.807,18.843-11.73,35.933-28.504,44.598
				C226.007,202.588,224.42,202.952,222.858,202.952z"/>
		</g>
		<g id="XMLID_5_">
			<path id="XMLID_7_" style="fill:#FFFFFF;" d="M151.222,194.451c0,0,52.082-8.055,100.504,4.316"/>
			<path id="XMLID_6_" style="fill:#5954A3;" d="M251.733,208.883c-0.828,0-1.671-0.102-2.51-0.316
				c-45.886-11.727-95.954-4.201-96.454-4.12c-5.511,0.846-10.687-2.927-11.541-8.45c-0.853-5.519,2.928-10.687,8.45-11.541
				c2.209-0.341,54.699-8.224,104.553,4.512c5.412,1.383,8.678,6.891,7.296,12.303C260.357,205.843,256.245,208.883,251.733,208.883
				z"/>
		</g>
		<g id="XMLID_2_">
			<path id="XMLID_4_" style="fill:#FFFFFF;" d="M94.477,224.642c-0.336-10.473-0.252-7.855-0.252-7.855"/>
			<path id="XMLID_3_" style="fill:#5954A3;" d="M94.471,234.757c-5.435,0-9.926-4.316-10.102-9.789l-0.26-8.145h0.003
				c-0.021-5.46,4.288-10.254,9.771-10.433c2.645-0.137,5.289,0.923,7.25,2.759c1.944,1.821,3.09,4.366,3.192,7.026l0,0
				c0,0.012,0.002,0.023,0.002,0.035c0,0.01,0,0.018,0,0.028l0.26,8.082c0.179,5.582-4.203,10.254-9.785,10.431
				C94.691,234.754,94.581,234.757,94.471,234.757z"/>
		</g>
	</g>
</g>
<g id="Layer_2">
	<path id="XMLID_13_" style="fill:#5954A3;" d="M151.856,383.444c-2.875,0-5.63-1.143-7.663-3.175L32.002,268.077
		c-4.233-4.229-4.233-11.09-0.002-15.323l41.602-41.604c4.065-4.065,11.259-4.067,15.325-0.002l62.929,62.929L312.113,113.82
		c4.231-4.229,11.095-4.231,15.323,0.002l41.602,41.602c4.233,4.231,4.233,11.092,0,15.323c-4.229,4.233-11.094,4.233-15.323,0
		l-33.941-33.939L159.518,297.062c-4.229,4.233-11.094,4.233-15.323,0l-62.929-62.925l-26.277,26.279l96.868,96.866l167.231-167.229
		c4.229-4.233,11.094-4.233,15.323,0c4.233,4.231,4.233,11.092,0,15.323L159.52,380.27
		C157.486,382.302,154.731,383.444,151.856,383.444z"/>
</g>
</svg>
