<?xml version="1.0" encoding="utf-8"?>
<!-- Generator: Adobe Illustrator 22.0.1, SVG Export Plug-In . SVG Version: 6.00 Build 0)  -->
<svg version="1.1" xmlns="http://www.w3.org/2000/svg" xmlns:xlink="http://www.w3.org/1999/xlink" x="0px" y="0px"
	 viewBox="0 0 618.7 432.9" style="enable-background:new 0 0 618.7 432.9;" xml:space="preserve">
<style type="text/css">
	.st0{fill:#F2F3F1;}
</style>
<g id="Layer_1">
	<rect x="108.4" y="323.2" class="st0" width="19.8" height="81"/>
	<path class="st0" d="M180.6,404.2c17.8,0,27.3-12.6,27.3-25.7c0-13.1-9.5-23.1-27.3-23.1l-3.6-0.1c-5.4,0-8.5-4-8.5-8.2
		c0-4.2,3.1-6.3,8.5-6.3h24v-17.6h-20.3l-4.6,0c-17.8,0-27.3,10.7-27.3,23.9c0,13.1,9.6,25,27.3,25l3.6,0.1c5.4,0,8.5,2.1,8.5,6.3
		c0,4.2-3.1,8.2-8.5,8.2h-28.1v17.5H180.6z"/>
	<path class="st0" d="M344.1,331.4c-1.4-3.7-2.5-5.2-4.1-6.5c-2-1.6-4-2.2-7-2.2c-2.9,0-5,0.6-7,2.2c-1.6,1.3-2.7,2.9-4.1,6.5
		l-25.8,72.8h19.7L333,354l17.1,50.1h19.7L344.1,331.4z"/>
	<path class="st0" d="M229.4,323.1h32.1c17.8,0,27.3,12.6,27.3,25.7c0,13.1-9.5,25.7-27.3,25.7h-12l0,29.6h-19.7v-38.3l0,0v0v-0.1
		l0,0c0-3.5,1.8-6.5,4.3-7.6c1.7-0.8,3.1-1,6-1.1l0,0l9.5,0h11.1c5.4,0,8.5-4,8.5-8.2c0-4.2-3.1-8.2-8.5-8.2h-31.2V323.1z"/>
	<polyline class="st0" points="529.9,323.1 529.9,404.2 549.7,404.2 549.7,404.2 549.7,372.2 570.6,372.2 570.6,404.2 570.5,404.2 
		590.3,404.2 590.3,323.1 570.5,323.1 570.6,323.1 570.6,354.6 549.7,354.6 549.7,323.1 549.7,323.1 529.9,323.1 	"/>
	<polyline class="st0" points="395.9,404.2 395.9,404.2 415.7,404.2 415.7,404.2 415.7,340.7 435.7,340.7 435.7,323.1 375.8,323.1 
		375.8,340.7 395.9,340.7 395.9,404.2 	"/>
	<g>
		<path class="st0" d="M67,364.2c0,13.6-0.6,15.7-2.1,18c-1.8,2.7-4.5,4.5-9.4,4.5h-8.7v-29.3H27v34.1c0,2.9-0.2,7.5,1.6,10
			c2.3,3.1,6.4,2.8,9.3,2.8h18.9c12,0,20.4-4.6,26-13.5c3.9-6.4,3.9-12.7,3.9-26.5v-1c0-13.8,0-20.1-3.9-26.5
			c-5.5-8.9-13.9-13.5-26-13.5H27v17.5h28.4c4.9,0,7.6,1.8,9.4,4.5c1.6,2.2,2.1,4.5,2.1,18V364.2z"/>
	</g>
	<path class="st0" d="M469,363.1c0-13.6,0.6-15.7,2.1-18c1.8-2.7,4.5-4.5,9.4-4.5h8.2l19,0v-17.5h-28.6c-12,0-20.4,4.6-26,13.5
		c-3.9,6.4-3.9,12.7-3.9,26.5v1c0,13.8,0,20.1,3.9,26.5c5.5,8.9,13.9,13.5,26,13.5h28.6v-17.5h-27.3c-4.9,0-7.6-1.8-9.4-4.5
		c-1.6-2.2-2.1-4.5-2.1-18V363.1z"/>
	<g>
		<path class="st0" d="M283.9,124.7l-36,14L114.7,91.5c1.9-1,165.8-57.7,165.8-57.7c14.1-5.2,18.8,6,18.8,14.4v57.6
			C299.3,117.1,295.5,120.5,283.9,124.7z"/>
	</g>
	<path class="st0" d="M284.1,171.5c11.3,4.5,15.3,6.9,15.3,18.2v58.7c0,8.3-4.4,18.9-18.8,14l-160.3-56.6
		c-11.5-3.7-15.3-6.9-15.3-18.2l0-79.5L284.1,171.5z"/>
	<g>
		<path class="st0" d="M333.4,124.7l36,14l133.3-47.2c-1.9-1-165.8-57.7-165.8-57.7c-14.1-5.2-18.8,6-18.8,14.4v57.6
			C318,117.1,321.8,120.5,333.4,124.7z"/>
	</g>
	<path class="st0" d="M333.2,171.5c-11.3,4.5-15.3,6.9-15.3,18.2v58.7c0,8.3,4.4,18.9,18.8,14l160.3-56.6
		c11.5-3.7,15.3-6.9,15.3-18.2l0-79.5L333.2,171.5z"/>
</g>
<g id="Layer_2">
</g>
</svg>
