<?xml version="1.0" encoding="utf-8"?>
<!-- Generator: Adobe Illustrator 19.0.0, SVG Export Plug-In . SVG Version: 6.00 Build 0)  -->
<svg version="1.1" id="Layer_1" xmlns="http://www.w3.org/2000/svg" xmlns:xlink="http://www.w3.org/1999/xlink" x="0px" y="0px"
	 viewBox="0 0 285 170" style="enable-background:new 0 0 285 170;" xml:space="preserve">
<path id="XMLID_31_" style="fill:#4C5CA9;" d="M125.701,70.931l-24.382,9.503L10.965,48.451
	c1.291-0.666,112.387-39.102,112.387-39.102c9.573-3.492,12.748,4.08,12.748,9.736v39.077
	C136.099,65.806,133.526,68.113,125.701,70.931"/>
<path id="XMLID_30_" style="fill:#4C5CA9;" d="M125.827,102.661c7.644,3.045,10.347,4.668,10.347,12.309v39.806
	c0,5.654-3.007,12.839-12.772,9.499L14.705,125.901c-7.787-2.507-10.349-4.665-10.349-12.31L4.36,59.686L125.827,102.661z"/>
<path id="XMLID_29_" style="fill:#4C5CA9;" d="M159.205,70.931l24.382,9.503l90.354-31.983c-1.291-0.665-112.387-39.1-112.387-39.1
	c-9.573-3.492-12.748,4.078-12.748,9.736v39.075C148.806,65.806,151.379,68.113,159.205,70.931"/>
<path id="XMLID_28_" style="fill:#4C5CA9;" d="M159.079,102.663c-7.644,3.045-10.347,4.666-10.347,12.309v39.804
	c0,5.654,3.007,12.839,12.771,9.499L270.2,125.903c7.787-2.508,10.349-4.667,10.349-12.312l-0.003-53.904L159.079,102.663z"/>
</svg>
