<?xml version="1.0" encoding="utf-8"?>
<!-- Generator: Adobe Illustrator 19.0.0, SVG Export Plug-In . SVG Version: 6.00 Build 0)  -->
<svg version="1.1" id="Layer_1" xmlns="http://www.w3.org/2000/svg" xmlns:xlink="http://www.w3.org/1999/xlink" x="0px" y="0px"
	 viewBox="0 0 1440 32.197" style="enable-background:new 0 0 1440 32.197;" xml:space="preserve">
<g id="XMLID_133_">
	<polygon id="XMLID_71_" style="fill:#191922;" points="888.137,16.123 896.206,0 886,0 877.956,16.074 877.954,16.074 
		869.886,32.197 880.091,32.197 888.136,16.123 	"/>
	<polygon id="XMLID_70_" style="fill:#191922;" points="908.554,16.123 916.623,0 906.413,0 898.37,16.074 898.367,16.074 
		890.3,32.197 900.508,32.197 908.552,16.123 	"/>
	<polygon id="XMLID_69_" style="fill:#191922;" points="867.735,16.123 875.805,0 865.598,0 857.554,16.074 857.552,16.074 
		849.484,32.197 859.689,32.197 867.734,16.123 	"/>
	<polygon id="XMLID_68_" style="fill:#191922;" points="928.97,16.123 937.039,0 926.83,0 918.787,16.074 918.784,16.074 
		910.716,32.197 920.924,32.197 928.969,16.123 	"/>
	<polygon id="XMLID_67_" style="fill:#191922;" points="949.385,16.123 957.453,0 947.246,0 939.202,16.074 939.2,16.074 
		931.131,32.197 941.339,32.197 949.383,16.123 	"/>
	<polygon id="XMLID_66_" style="fill:#191922;" points="969.801,16.123 977.87,0 967.663,0 959.618,16.074 959.617,16.074 
		951.548,32.197 961.755,32.197 969.799,16.123 	"/>
	<polygon id="XMLID_65_" style="fill:#191922;" points="990.217,16.123 998.286,0 988.077,0 980.033,16.074 980.031,16.074 
		971.963,32.197 982.171,32.197 990.216,16.123 	"/>
	<polygon id="XMLID_64_" style="fill:#191922;" points="1010.632,16.123 1018.703,0 1008.493,0 1000.45,16.074 1000.447,16.074 
		992.379,32.197 1002.586,32.197 1010.632,16.123 	"/>
	<polygon id="XMLID_63_" style="fill:#191922;" points="1031.049,16.123 1039.117,0 1028.91,0 1020.865,16.074 1020.864,16.074 
		1012.795,32.197 1023.003,32.197 1031.046,16.123 	"/>
	<polygon id="XMLID_62_" style="fill:#191922;" points="1051.465,16.123 1059.533,0 1049.326,0 1041.281,16.074 1041.28,16.074 
		1033.211,32.197 1043.419,32.197 1051.463,16.123 	"/>
	<polygon id="XMLID_61_" style="fill:#191922;" points="1071.88,16.123 1079.95,0 1069.74,0 1061.697,16.074 1061.694,16.074 
		1053.626,32.197 1063.834,32.197 1071.879,16.123 	"/>
	<polygon id="XMLID_60_" style="fill:#191922;" points="1092.296,16.123 1100.366,0 1090.158,0 1082.113,16.074 1082.112,16.074 
		1074.043,32.197 1084.25,32.197 1092.296,16.123 	"/>
	<polygon id="XMLID_59_" style="fill:#191922;" points="1112.713,16.123 1120.782,0 1110.573,0 1102.53,16.074 1102.527,16.074 
		1094.459,32.197 1104.667,32.197 1112.712,16.123 	"/>
	<polygon id="XMLID_58_" style="fill:#191922;" points="1133.128,16.123 1141.196,0 1141.156,0 1130.989,0 1130.947,0 
		1122.904,16.074 1122.901,16.074 1114.833,32.197 1114.874,32.197 1125.041,32.197 1125.083,32.197 1133.126,16.123 	"/>
	<polygon id="XMLID_57_" style="fill:#191922;" points="1153.502,16.123 1161.57,0 1161.53,0 1151.363,0 1151.321,0 
		1143.277,16.074 1143.275,16.074 1135.207,32.197 1135.248,32.197 1145.415,32.197 1145.456,32.197 1153.5,16.123 	"/>
</g>
<g id="XMLID_118_">
	<polygon id="XMLID_56_" style="fill:#191922;" points="1173.86,16.123 1181.93,0 1171.723,0 1163.679,16.074 1163.677,16.074 
		1155.609,32.197 1165.815,32.197 1173.859,16.123 	"/>
	<polygon id="XMLID_55_" style="fill:#191922;" points="1194.277,16.123 1202.346,0 1192.137,0 1184.093,16.074 1184.091,16.074 
		1176.023,32.197 1186.231,32.197 1194.276,16.123 	"/>
	<polygon id="XMLID_54_" style="fill:#191922;" points="1214.694,16.123 1222.763,0 1212.553,0 1204.51,16.074 1204.507,16.074 
		1196.439,32.197 1206.648,32.197 1214.692,16.123 	"/>
	<polygon id="XMLID_53_" style="fill:#191922;" points="1235.109,16.123 1243.177,0 1232.97,0 1224.925,16.074 1224.924,16.074 
		1216.855,32.197 1227.063,32.197 1235.106,16.123 	"/>
	<polygon id="XMLID_52_" style="fill:#191922;" points="1255.524,16.123 1263.593,0 1253.386,0 1245.341,16.074 1245.34,16.074 
		1237.271,32.197 1247.478,32.197 1255.522,16.123 	"/>
	<polygon id="XMLID_51_" style="fill:#191922;" points="1275.94,16.123 1284.01,0 1273.8,0 1265.757,16.074 1265.754,16.074 
		1257.686,32.197 1267.894,32.197 1275.939,16.123 	"/>
	<polygon id="XMLID_50_" style="fill:#191922;" points="1296.356,16.123 1304.426,0 1294.216,0 1286.173,16.074 1286.17,16.074 
		1278.103,32.197 1288.31,32.197 1296.355,16.123 	"/>
	<polygon id="XMLID_49_" style="fill:#191922;" points="1316.772,16.123 1324.84,0 1314.633,0 1306.588,16.074 1306.587,16.074 
		1298.518,32.197 1308.726,32.197 1316.769,16.123 	"/>
	<polygon id="XMLID_48_" style="fill:#191922;" points="1337.188,16.123 1345.256,0 1335.049,0 1327.005,16.074 1327.003,16.074 
		1318.934,32.197 1329.142,32.197 1337.186,16.123 	"/>
	<polygon id="XMLID_47_" style="fill:#191922;" points="1357.604,16.123 1365.673,0 1355.463,0 1347.42,16.074 1347.417,16.074 
		1339.349,32.197 1349.558,32.197 1357.602,16.123 	"/>
	<polygon id="XMLID_46_" style="fill:#191922;" points="1378.019,16.123 1386.089,0 1375.881,0 1367.837,16.074 1367.835,16.074 
		1359.766,32.197 1369.973,32.197 1378.019,16.123 	"/>
	<polygon id="XMLID_45_" style="fill:#191922;" points="1398.437,16.123 1406.506,0 1396.296,0 1388.253,16.074 1388.25,16.074 
		1380.182,32.197 1390.391,32.197 1398.435,16.123 	"/>
	<polygon id="XMLID_44_" style="fill:#191922;" points="1418.852,16.123 1426.92,0 1426.88,0 1416.713,0 1416.67,0 1408.627,16.074 
		1408.624,16.074 1400.556,32.197 1400.598,32.197 1410.764,32.197 1410.806,32.197 1418.849,16.123 	"/>
	<polygon id="XMLID_43_" style="fill:#191922;" points="1439.226,16.123 1447.293,0 1447.253,0 1437.087,0 1437.044,0 
		1429.001,16.074 1428.998,16.074 1420.93,32.197 1420.971,32.197 1431.138,32.197 1431.18,32.197 1439.223,16.123 	"/>
</g>
<g id="XMLID_103_">
	<polygon id="XMLID_42_" style="fill:#191922;" points="601.577,16.123 609.646,0 599.439,0 591.396,16.074 591.393,16.074 
		583.326,32.197 593.531,32.197 601.576,16.123 	"/>
	<polygon id="XMLID_41_" style="fill:#191922;" points="621.994,16.123 630.063,0 619.853,0 611.81,16.074 611.807,16.074 
		603.74,32.197 613.948,32.197 621.992,16.123 	"/>
	<polygon id="XMLID_40_" style="fill:#191922;" points="581.175,16.123 589.244,0 579.037,0 570.994,16.074 570.992,16.074 
		562.924,32.197 573.129,32.197 581.174,16.123 	"/>
	<polygon id="XMLID_39_" style="fill:#191922;" points="642.41,16.123 650.479,0 640.27,0 632.226,16.074 632.224,16.074 
		624.156,32.197 634.364,32.197 642.409,16.123 	"/>
	<polygon id="XMLID_38_" style="fill:#191922;" points="662.825,16.123 670.893,0 660.686,0 652.642,16.074 652.64,16.074 
		644.571,32.197 654.779,32.197 662.823,16.123 	"/>
	<polygon id="XMLID_37_" style="fill:#191922;" points="683.24,16.123 691.31,0 681.103,0 673.058,16.074 673.057,16.074 
		664.988,32.197 675.195,32.197 683.239,16.123 	"/>
	<polygon id="XMLID_36_" style="fill:#191922;" points="703.657,16.123 711.726,0 701.517,0 693.473,16.074 693.471,16.074 
		685.403,32.197 695.611,32.197 703.656,16.123 	"/>
	<polygon id="XMLID_35_" style="fill:#191922;" points="724.072,16.123 732.143,0 721.933,0 713.89,16.074 713.887,16.074 
		705.819,32.197 716.026,32.197 724.072,16.123 	"/>
	<polygon id="XMLID_34_" style="fill:#191922;" points="744.489,16.123 752.557,0 742.35,0 734.305,16.074 734.304,16.074 
		726.234,32.197 736.443,32.197 744.486,16.123 	"/>
	<polygon id="XMLID_33_" style="fill:#191922;" points="764.905,16.123 772.973,0 762.766,0 754.721,16.074 754.72,16.074 
		746.651,32.197 756.859,32.197 764.902,16.123 	"/>
	<polygon id="XMLID_32_" style="fill:#191922;" points="785.32,16.123 793.389,0 783.18,0 775.137,16.074 775.134,16.074 
		767.066,32.197 777.274,32.197 785.319,16.123 	"/>
	<polygon id="XMLID_31_" style="fill:#191922;" points="805.736,16.123 813.806,0 803.598,0 795.553,16.074 795.552,16.074 
		787.483,32.197 797.69,32.197 805.735,16.123 	"/>
	<polygon id="XMLID_30_" style="fill:#191922;" points="826.153,16.123 834.222,0 824.013,0 815.97,16.074 815.967,16.074 
		807.899,32.197 818.107,32.197 826.152,16.123 	"/>
	<polygon id="XMLID_29_" style="fill:#191922;" points="846.568,16.123 854.636,0 854.596,0 844.429,0 844.387,0 836.343,16.074 
		836.341,16.074 828.273,32.197 828.314,32.197 838.481,32.197 838.522,32.197 846.566,16.123 	"/>
</g>
<g id="XMLID_88_">
	<polygon id="XMLID_28_" style="fill:#191922;" points="315.811,16.123 323.881,0 313.674,0 305.63,16.074 305.628,16.074 
		297.56,32.197 307.766,32.197 315.81,16.123 	"/>
	<polygon id="XMLID_27_" style="fill:#191922;" points="336.228,16.123 344.297,0 334.088,0 326.044,16.074 326.042,16.074 
		317.974,32.197 328.182,32.197 336.227,16.123 	"/>
	<polygon id="XMLID_26_" style="fill:#191922;" points="295.41,16.123 303.479,0 293.272,0 285.228,16.074 285.226,16.074 
		277.158,32.197 287.364,32.197 295.408,16.123 	"/>
	<polygon id="XMLID_25_" style="fill:#191922;" points="356.645,16.123 364.714,0 354.504,0 346.461,16.074 346.458,16.074 
		338.39,32.197 348.599,32.197 356.643,16.123 	"/>
	<polygon id="XMLID_24_" style="fill:#191922;" points="377.06,16.123 385.128,0 374.921,0 366.876,16.074 366.875,16.074 
		358.806,32.197 369.014,32.197 377.057,16.123 	"/>
	<polygon id="XMLID_23_" style="fill:#191922;" points="397.475,16.123 405.544,0 395.337,0 387.292,16.074 387.291,16.074 
		379.222,32.197 389.429,32.197 397.473,16.123 	"/>
	<polygon id="XMLID_22_" style="fill:#191922;" points="417.891,16.123 425.961,0 415.751,0 407.708,16.074 407.705,16.074 
		399.637,32.197 409.845,32.197 417.89,16.123 	"/>
	<polygon id="XMLID_21_" style="fill:#191922;" points="438.307,16.123 446.377,0 436.167,0 428.124,16.074 428.121,16.074 
		420.054,32.197 430.261,32.197 438.306,16.123 	"/>
	<polygon id="XMLID_20_" style="fill:#191922;" points="458.723,16.123 466.791,0 456.584,0 448.539,16.074 448.538,16.074 
		440.469,32.197 450.677,32.197 458.72,16.123 	"/>
	<polygon id="XMLID_19_" style="fill:#191922;" points="479.139,16.123 487.207,0 477,0 468.956,16.074 468.954,16.074 
		460.885,32.197 471.093,32.197 479.137,16.123 	"/>
	<polygon id="XMLID_18_" style="fill:#191922;" points="499.555,16.123 507.624,0 497.414,0 489.371,16.074 489.368,16.074 
		481.3,32.197 491.509,32.197 499.553,16.123 	"/>
	<polygon id="XMLID_17_" style="fill:#191922;" points="519.97,16.123 528.04,0 517.832,0 509.787,16.074 509.786,16.074 
		501.717,32.197 511.924,32.197 519.97,16.123 	"/>
	<polygon id="XMLID_16_" style="fill:#191922;" points="540.388,16.123 548.457,0 538.247,0 530.204,16.074 530.201,16.074 
		522.133,32.197 532.341,32.197 540.386,16.123 	"/>
	<polygon id="XMLID_15_" style="fill:#191922;" points="560.803,16.123 568.871,0 568.831,0 558.664,0 558.621,0 550.578,16.074 
		550.575,16.074 542.507,32.197 542.548,32.197 552.715,32.197 552.757,32.197 560.8,16.123 	"/>
</g>
<g id="XMLID_73_">
	<polygon id="XMLID_14_" style="fill:#191922;" points="29.251,16.123 37.321,0 27.114,0 19.07,16.074 19.068,16.074 11,32.197 
		21.205,32.197 29.25,16.123 	"/>
	<polygon id="XMLID_13_" style="fill:#191922;" points="49.668,16.123 57.737,0 47.527,0 39.484,16.074 39.482,16.074 
		31.414,32.197 41.622,32.197 49.667,16.123 	"/>
	<polygon id="XMLID_12_" style="fill:#191922;" points="8.849,16.123 16.919,0 6.712,0 -1.332,16.074 -1.334,16.074 -9.402,32.197 
		0.804,32.197 8.848,16.123 	"/>
	<polygon id="XMLID_11_" style="fill:#191922;" points="70.084,16.123 78.153,0 67.944,0 59.901,16.074 59.898,16.074 51.83,32.197 
		62.038,32.197 70.083,16.123 	"/>
	<polygon id="XMLID_10_" style="fill:#191922;" points="90.5,16.123 98.567,0 88.36,0 80.316,16.074 80.314,16.074 72.245,32.197 
		82.454,32.197 90.497,16.123 	"/>
	<polygon id="XMLID_9_" style="fill:#191922;" points="110.915,16.123 118.984,0 108.777,0 100.732,16.074 100.731,16.074 
		92.662,32.197 102.869,32.197 110.913,16.123 	"/>
	<polygon id="XMLID_8_" style="fill:#191922;" points="131.331,16.123 139.4,0 129.191,0 121.147,16.074 121.145,16.074 
		113.077,32.197 123.285,32.197 131.33,16.123 	"/>
	<polygon id="XMLID_7_" style="fill:#191922;" points="151.746,16.123 159.817,0 149.607,0 141.564,16.074 141.561,16.074 
		133.493,32.197 143.7,32.197 151.746,16.123 	"/>
	<polygon id="XMLID_6_" style="fill:#191922;" points="172.163,16.123 180.231,0 170.024,0 161.979,16.074 161.978,16.074 
		153.909,32.197 164.117,32.197 172.16,16.123 	"/>
	<polygon id="XMLID_5_" style="fill:#191922;" points="192.579,16.123 200.647,0 190.44,0 182.396,16.074 182.394,16.074 
		174.325,32.197 184.533,32.197 192.577,16.123 	"/>
	<polygon id="XMLID_4_" style="fill:#191922;" points="212.994,16.123 221.064,0 210.854,0 202.811,16.074 202.808,16.074 
		194.74,32.197 204.949,32.197 212.993,16.123 	"/>
	<polygon id="XMLID_3_" style="fill:#191922;" points="233.41,16.123 241.48,0 231.272,0 223.227,16.074 223.226,16.074 
		215.157,32.197 225.364,32.197 233.41,16.123 	"/>
	<polygon id="XMLID_2_" style="fill:#191922;" points="253.827,16.123 261.897,0 251.687,0 243.644,16.074 243.641,16.074 
		235.573,32.197 245.781,32.197 253.826,16.123 	"/>
	<polygon id="XMLID_1_" style="fill:#191922;" points="274.243,16.123 282.31,0 282.27,0 272.104,0 272.061,0 264.018,16.074 
		264.015,16.074 255.947,32.197 255.988,32.197 266.155,32.197 266.197,32.197 274.24,16.123 	"/>
</g>
</svg>
