<?xml version="1.0" encoding="UTF-8"?>
<!DOCTYPE svg PUBLIC "-//W3C//DTD SVG 1.1//EN" "http://www.w3.org/Graphics/SVG/1.1/DTD/svg11.dtd">
<!-- Creator: CorelDRAW -->
<svg xmlns="http://www.w3.org/2000/svg" xml:space="preserve" width="62px" height="69px" style="shape-rendering:geometricPrecision; text-rendering:geometricPrecision; image-rendering:optimizeQuality; fill-rule:evenodd; clip-rule:evenodd"
viewBox="0 0 1.00257 1.12039"
 xmlns:xlink="http://www.w3.org/1999/xlink">
 <defs>
  <style type="text/css">
   <![CDATA[
    .fil0 {fill:black;fill-rule:nonzero}
   ]]>
  </style>
 </defs>
 <g id="Layer_x0020_1">
  <metadata id="CorelCorpID_0Corel-Layer"/>
  <polygon class="fil0" points="-0,1.06143 0.94356,1.06143 0.94356,1.12039 -0,1.12039 "/>
  <path class="fil0" d="M0.963678 0.101354l-0.0625543 -0.0625352c-0.0517011,-0.0517203 -0.135924,-0.0517777 -0.187625,0l-0.56297 0.562912c-0.00356031,0.00354117 -0.00614441,0.00794371 -0.00750346,0.0127674l-0.0834185 0.291907c-0.00292865,0.0103364 -3.82829e-005,0.021381 0.00750346,0.0289802 0.00562759,0.00560845 0.0131119,0.00865195 0.0208642,0.00865195 0.00267981,0 0.00541704,-0.000344547 0.00809684,-0.00111021l0.291927 -0.0834185c0.00486193,-0.00135904 0.00920705,-0.00394314 0.0127482,-0.00748432l0.562932 -0.563027c0.0250753,-0.0250753 0.0388955,-0.0584006 0.0388955,-0.0937932 0,-0.0354692 -0.0138201,-0.0688327 -0.0388955,-0.0938506zm-0.599224 0.703468l-0.233545 0.0666889 0.066708 -0.233526 0.45327 -0.453328 0.166837 0.166837 -0.45327 0.453328zm0.557534 -0.557515l-0.0625352 0.0625543 -0.166818 -0.166837 0.0625352 -0.0625352c0.0287122,-0.0287122 0.0755131,-0.0287122 0.104283,0l0.0625352 0.0625352c0.013935,0.013935 0.0215724,0.0324257 0.0215724,0.0521222 0,0.0196966 -0.00763745,0.0382447 -0.0215724,0.0521605z"/>
 </g>
</svg>
