<?xml version="1.0" encoding="utf-8"?>
<!-- Generator: Adobe Illustrator 19.0.0, SVG Export Plug-In . SVG Version: 6.00 Build 0)  -->
<svg version="1.1" id="Layer_1" xmlns="http://www.w3.org/2000/svg" xmlns:xlink="http://www.w3.org/1999/xlink" x="0px" y="0px"
	 viewBox="0 0 51.375 51.125" style="enable-background:new 0 0 51.375 51.125;" xml:space="preserve">
<path style="fill:none;stroke:#4C5DA9;stroke-width:3;stroke-linecap:round;stroke-miterlimit:10;" d="M28.855,15.16
	c0,0.888-0.307,1.638-0.919,2.25c-0.613,0.613-1.362,0.919-2.249,0.919c-0.887,0-1.637-0.306-2.249-0.919
	c-0.614-0.612-0.919-1.362-0.919-2.25c0-0.886,0.305-1.635,0.919-2.249c0.612-0.612,1.362-0.919,2.249-0.919
	c0.887,0,1.636,0.307,2.249,0.919C28.549,13.525,28.855,14.274,28.855,15.16z M23.09,38.133v-14.38c0-0.552,0.448-1,1-1h3.196
	c0.552,0,1,0.448,1,1v14.38c0,0.552-0.448,1-1,1H24.09C23.538,39.133,23.09,38.686,23.09,38.133z"/>
<path id="XMLID_40_" style="fill:none;stroke:#4C5DA9;stroke-width:3;stroke-linecap:round;stroke-miterlimit:10;" d="M8.69,8.565
	c4.35-4.35,10.36-7.041,16.998-7.041c13.276,0,24.039,10.763,24.039,24.039c0,13.277-10.763,24.039-24.039,24.039
	c-13.277,0-24.039-10.762-24.039-24.039c0-3.884,0.921-7.554,2.557-10.801"/>
</svg>
