<?xml version="1.0" encoding="UTF-8"?>
<svg width="19px" height="19px" viewBox="0 0 19 19" version="1.1" xmlns="http://www.w3.org/2000/svg" xmlns:xlink="http://www.w3.org/1999/xlink">
    <!-- Generator: Sketch 46.2 (44496) - http://www.bohemiancoding.com/sketch -->
    <title>noun_605321_cc</title>
    <desc>Created with Sketch.</desc>
    <defs></defs>
    <g id="Page-1" stroke="none" stroke-width="1" fill="none" fill-rule="evenodd">
        <g id="noun_605321_cc" fill-rule="nonzero" fill="#F1B34E">
            <g id="Group">
                <path d="M18.1094783,2.5773913 L15.7716522,0.242043478 C15.4486522,-0.0809565217 14.9265652,-0.0809565217 14.6035652,0.242043478 L12.8514348,1.99334783 L16.3556957,5.4976087 L18.1094783,3.74547826 C18.43,3.42330435 18.43,2.9003913 18.1094783,2.5773913 Z" id="Shape"></path>
                <polygon id="Shape" points="0 18.3498696 4.67234783 17.1817826 1.16808696 13.6775217"></polygon>
                <polygon id="Rectangle-path" points="1.75155647 13.0920088 12.2678972 2.57864217 15.7721581 6.08389434 5.25581734 16.597261"></polygon>
                <polygon id="Shape" points="15.6956522 18.3498696 15.6956522 15.8716087 18.173913 15.8716087 18.173913 14.2194348 15.6956522 14.2194348 15.6956522 11.7411739 14.0434783 11.7411739 14.0434783 14.2194348 11.5652174 14.2194348 11.5652174 15.8716087 14.0434783 15.8716087 14.0434783 18.3498696"></polygon>
            </g>
        </g>
    </g>
</svg>